<svg width="74" height="74" viewBox="0 0 74 74" fill="none" xmlns="http://www.w3.org/2000/svg">
<path d="M37 0.25C16.7349 0.25 0.25 16.7349 0.25 37C0.25 57.2651 16.7349 73.75 37 73.75C57.2651 73.75 73.75 57.2651 73.75 37C73.75 16.7349 57.2651 0.25 37 0.25ZM37 6.375C53.9514 6.375 67.625 20.0486 67.625 37C67.625 53.9514 53.9514 67.625 37 67.625C20.0486 67.625 6.375 53.9514 6.375 37C6.375 20.0486 20.0486 6.375 37 6.375ZM33.9375 18.625V43.125H40.0625V18.625H33.9375ZM33.9375 49.25V55.375H40.0625V49.25H33.9375Z" fill="#FF912B"/>
</svg>
