<svg width="9" height="16" viewBox="0 0 9 16" fill="none" xmlns="http://www.w3.org/2000/svg">
<path d="M7.75 2V12C7.75 13.657 6.40699 15 4.75 15C3.09301 15 1.75 13.657 1.75 12V3C1.75 1.89549 2.64549 1 3.75 1C4.85451 1 5.75 1.89549 5.75 3V12C5.75 12.5525 5.302 13 4.75 13C4.19749 13 3.75 12.5525 3.75 12V4H2.75V12C2.75 13.1045 3.64549 14 4.75 14C5.85451 14 6.75 13.1045 6.75 12V3C6.75 1.34301 5.40699 0 3.75 0C2.09301 0 0.75 1.34301 0.75 3V12.5C0.996505 14.4725 2.71051 16 4.75 16C6.78949 16 8.50349 14.4725 8.75 12.5V2H7.75Z" fill="#1E6BEB"/>
</svg>
