<svg width="20" height="16" viewBox="0 0 20 16" fill="none" xmlns="http://www.w3.org/2000/svg">
<path d="M19.0024 15.2623H5.62845C5.07724 15.2623 4.63049 14.8155 4.63049 14.2643C4.63049 13.7131 5.07724 13.2664 5.62845 13.2664H19.002C19.5532 13.2664 20 13.7131 20 14.2643C20 14.8155 19.5536 15.2623 19.0024 15.2623Z" fill="#C2CFE0"/>
<path d="M19.0024 8.99811H5.62845C5.07724 8.99811 4.63049 8.55135 4.63049 8.00015C4.63049 7.44895 5.07724 7.0022 5.62845 7.0022H19.002C19.5532 7.0022 20 7.44895 20 8.00015C20.0003 8.55135 19.5536 8.99811 19.0024 8.99811Z" fill="#C2CFE0"/>
<path d="M19.0024 2.73395H5.62845C5.07724 2.73395 4.63049 2.28719 4.63049 1.73599C4.63049 1.18479 5.07724 0.738037 5.62845 0.738037H19.002C19.5532 0.738037 20 1.18479 20 1.73599C20 2.28719 19.5536 2.73395 19.0024 2.73395Z" fill="#C2CFE0"/>
<path d="M1.34025 3.15341C2.08045 3.15341 2.6805 2.55335 2.6805 1.81315C2.6805 1.07295 2.08045 0.4729 1.34025 0.4729C0.600051 0.4729 0 1.07295 0 1.81315C0 2.55335 0.600051 3.15341 1.34025 3.15341Z" fill="#C2CFE0"/>
<path d="M1.34025 9.34042C2.08045 9.34042 2.6805 8.74037 2.6805 8.00016C2.6805 7.25996 2.08045 6.65991 1.34025 6.65991C0.600051 6.65991 0 7.25996 0 8.00016C0 8.74037 0.600051 9.34042 1.34025 9.34042Z" fill="#C2CFE0"/>
<path d="M1.34025 15.5273C2.08045 15.5273 2.6805 14.9273 2.6805 14.1871C2.6805 13.4469 2.08045 12.8468 1.34025 12.8468C0.600051 12.8468 0 13.4469 0 14.1871C0 14.9273 0.600051 15.5273 1.34025 15.5273Z" fill="#C2CFE0"/>
</svg>
