<svg width="10" height="10" viewBox="0 0 10 10" fill="none" xmlns="http://www.w3.org/2000/svg">
<path d="M5.2167 5.40142C6.63512 5.40142 7.78497 4.25157 7.78497 2.83316C7.78497 1.41474 6.63512 0.264893 5.2167 0.264893C3.79829 0.264893 2.64844 1.41474 2.64844 2.83316C2.64844 4.25157 3.79829 5.40142 5.2167 5.40142Z" stroke="#1E6BEB" stroke-width="0.5" stroke-linecap="round" stroke-linejoin="round"/>
<path d="M4.16196 3.87053C4.32737 4.07729 4.63127 4.33672 5.01447 4.41469C5.42548 4.49833 5.87331 4.36225 6.26668 3.87053L5.87625 3.55818C5.58391 3.92361 5.31745 3.9661 5.11417 3.92473C4.88308 3.87771 4.6727 3.70857 4.55239 3.55818L4.16196 3.87053Z" fill="#1E6BEB"/>
<path fill-rule="evenodd" clip-rule="evenodd" d="M1.14283 7.13043C1.14215 6.94988 1.18253 6.77154 1.26092 6.6089C1.50692 6.1169 2.20065 5.85613 2.7763 5.73805C3.19145 5.64946 3.61234 5.59027 4.03583 5.56093C4.81989 5.49206 5.60847 5.49206 6.39253 5.56093C6.81599 5.59061 7.23685 5.64979 7.65207 5.73805C8.22771 5.85613 8.92144 6.0923 9.16744 6.6089C9.32509 6.94044 9.32509 7.32534 9.16744 7.65687C8.92144 8.17348 8.22771 8.40964 7.65207 8.5228C7.2374 8.61506 6.81636 8.67592 6.39253 8.70484C5.75437 8.75894 5.11324 8.76881 4.47371 8.73436C4.32611 8.73436 4.18343 8.73436 4.03583 8.70484C3.61359 8.67627 3.19416 8.61542 2.78122 8.5228C2.20065 8.40964 1.51184 8.17348 1.26092 7.65687C1.18293 7.49235 1.14259 7.3125 1.14283 7.13043Z" stroke="#1E6BEB" stroke-width="0.5" stroke-linecap="round" stroke-linejoin="round"/>
</svg>
