<svg width="74" height="74" viewBox="0 0 74 74" fill="none" xmlns="http://www.w3.org/2000/svg">
<path d="M37 74C16.5633 74 0 57.4367 0 37C0 16.5633 16.5633 0 37 0C57.4367 0 74 16.5633 74 37C74 57.4367 57.4367 74 37 74Z" fill="#FE911E"/>
<path d="M54.2138 24.9461C55.4134 26.1457 55.4134 28.0969 54.2138 29.3109L34.1673 49.3574C33.5602 49.9645 32.7798 50.268 31.9849 50.268C31.1899 50.268 30.4095 49.9645 29.8024 49.3574L19.7864 39.3414C18.5868 38.1418 18.5868 36.1906 19.7864 34.9766C20.986 33.777 22.9372 33.777 24.1513 34.9766L31.9849 42.8102L49.8489 24.9461C51.063 23.7465 52.9997 23.7465 54.2138 24.9461Z" fill="white"/>
</svg>
