<svg width="84" height="84" viewBox="0 0 84 84" fill="none" xmlns="http://www.w3.org/2000/svg">
<path d="M42 0.5625C19.0525 0.5625 0.5625 19.0525 0.5625 42C0.5625 64.9475 19.0525 83.4375 42 83.4375C64.9475 83.4375 83.4375 64.9475 83.4375 42C83.4375 37.5425 82.8398 33.0974 81.2461 28.9512L76.0664 34.0312C76.7014 36.5837 77.0625 39.1362 77.0625 42C77.0625 61.4487 61.4487 77.0625 42 77.0625C22.5513 77.0625 6.9375 61.4487 6.9375 42C6.9375 22.5513 22.5513 6.9375 42 6.9375C51.5625 6.9375 60.1538 10.7476 66.2051 16.7988L70.6875 12.3164C63.3538 4.98267 53.1562 0.5625 42 0.5625ZM77.959 14.209L42 50.168L28.3535 36.5215L23.7715 41.1035L39.709 57.041L42 59.2324L44.291 57.041L82.541 18.791L77.959 14.209Z" fill="#27AE60"/>
</svg>
