<svg width="8" height="7" viewBox="0 0 8 7" fill="none" xmlns="http://www.w3.org/2000/svg">
<path d="M5.84619 1.67993H2.15388C1.98465 1.67993 1.84619 1.80593 1.84619 1.95993C1.84619 2.11393 1.98465 2.23993 2.15388 2.23993H5.84619C6.01542 2.23993 6.15388 2.11393 6.15388 1.95993C6.15388 1.80593 6.01542 1.67993 5.84619 1.67993Z" fill="#C4C4C4"/>
<path d="M4.61542 2.80005H2.15388C1.98465 2.80005 1.84619 2.92605 1.84619 3.08005C1.84619 3.23405 1.98465 3.36005 2.15388 3.36005H4.61542C4.78465 3.36005 4.92311 3.23405 4.92311 3.08005C4.92311 2.92605 4.78465 2.80005 4.61542 2.80005Z" fill="#C4C4C4"/>
<path d="M6.76923 0H1.23077C0.551923 0 0 0.50225 0 1.12V6.72C0 6.8285 0.0692308 6.92825 0.176923 6.97375C0.217308 6.99125 0.263462 7 0.307692 7C0.378846 7 0.448077 6.97725 0.503846 6.93525L2.26538 5.6H6.76923C7.44808 5.6 8 5.09775 8 4.48V1.12C8 0.50225 7.44808 0 6.76923 0ZM7.38462 4.48C7.38462 4.788 7.10962 5.04 6.76923 5.04H2.15385C2.08269 5.04 2.01154 5.06275 1.95769 5.10475L0.615385 6.12325V1.12C0.615385 0.812 0.890385 0.56 1.23077 0.56H6.76923C7.10962 0.56 7.38462 0.812 7.38462 1.12V4.48Z" fill="#C4C4C4"/>
</svg>
