<svg width="13" height="13" viewBox="0 0 13 13" fill="none" xmlns="http://www.w3.org/2000/svg">
<path d="M11.25 0C10.8015 0 10.3656 0.18009 10.0261 0.51933L9.97582 0.569588L9.6405 0.251289L0.788006 9.09665L0.754474 9.26417L0.167661 12.2126L0 13L0.788006 12.8325L3.73884 12.2461L3.9065 12.2126L12.759 3.36727L12.4404 3.04897L12.474 3.01546L12.4907 2.98196C13.1698 2.30348 13.1698 1.19781 12.4907 0.51933C12.1512 0.18009 11.6985 0 11.25 0ZM11.25 1.05541C11.4177 1.05541 11.5937 1.1308 11.7363 1.2732C12.0234 1.56008 12.0234 1.9412 11.7363 2.22809L11.686 2.27835L10.7303 1.32345L10.7806 1.2732C10.9231 1.1308 11.0824 1.05541 11.25 1.05541ZM9.65726 1.75902L11.25 3.35052L10.4788 4.13789L8.86926 2.52964L9.65726 1.75902ZM8.13155 3.30026L9.70756 4.875L4.10769 10.4871L3.88973 9.51546L3.82267 9.18041L3.48734 9.1134L2.51491 8.89562L8.13155 3.30026ZM1.74367 9.81701L2.9173 10.0851L3.18556 11.2577L2.09576 11.4755L1.52571 10.9059L1.74367 9.81701Z" fill="#172B4D"/>
</svg>
